<mxfile host="app.diagrams.net" modified="2023-08-04T08:08:24.106Z" agent="Mozilla/5.0 (Macintosh; Intel Mac OS X 10_15_7) AppleWebKit/537.36 (KHTML, like Gecko) Chrome/115.0.0.0 Safari/537.36" version="21.6.6" etag="9ibUcuNjV1mIEx4hJjOS" type="github">
  <diagram name="第 1 页" id="mO694iLJCoa3ePxbZfhn">
    <mxGraphModel>
      <root>
        <mxCell id="0" />
        <mxCell id="1" parent="0" />
      </root>
    </mxGraphModel>
  </diagram>
</mxfile>
